<svg xmlns="http://www.w3.org/2000/svg" viewBox="0 0 100 100"><circle cx="50" cy="50" r="46" fill="#fff" stroke="#C9A227" stroke-width="6"/><rect x="45" y="19" width="10" height="28" rx="1.5" fill="#1B2A4A"/><rect x="36" y="28" width="28" height="10" rx="1.5" fill="#1B2A4A"/><circle cx="26" cy="35" r="5" fill="#C9A227"/><path d="M26 59V47M26 47L18 39M26 47L34 40" stroke="#C9A227" stroke-width="5" stroke-linecap="round" fill="none"/><circle cx="74" cy="35" r="5" fill="#C9A227"/><path d="M74 59V47M74 47L82 39M74 47L66 40" stroke="#C9A227" stroke-width="5" stroke-linecap="round" fill="none"/><path d="M15 55C19 77 37 84 50 84C63 84 81 77 85 55C79 65 66 71 50 71C34 71 21 65 15 55Z" fill="#1B2A4A"/><path d="M21 52c3-3 7-2 9 2M79 52c-3-3-7-2-9 2" stroke="#1B2A4A" stroke-width="4" stroke-linecap="round" fill="none"/></svg>
